<?xml version="1.0" encoding="UTF-8"?><svg id="uuid-3a29aaf3-214c-465a-a216-5bbebbc5eb02" xmlns="http://www.w3.org/2000/svg" viewBox="0 0 297.03 117.46"><defs><style>.uuid-d397ef74-b39f-486f-a272-1a84d39ae21d{fill:#ffba49;}.uuid-d397ef74-b39f-486f-a272-1a84d39ae21d,.uuid-6b963595-0566-4483-83c8-b26384c4cfd1{stroke-width:0px;}.uuid-6b963595-0566-4483-83c8-b26384c4cfd1{fill:#00584c;}</style></defs><path class="uuid-6b963595-0566-4483-83c8-b26384c4cfd1" d="m60.84,46.83v2.44l-4.28-1.22v20.51l-2.04-.62v-20.48l-4.25-1.21v-2.42l10.57,2.99Z"/><path class="uuid-6b963595-0566-4483-83c8-b26384c4cfd1" d="m75.68,51.03v23.3l-2.1-.63v-10.55l-8.13-2.39v10.48l-2.07-.62v-23.07l2.07.59v10.15l8.13,2.37v-10.21l2.1.6Z"/><path class="uuid-6b963595-0566-4483-83c8-b26384c4cfd1" d="m81.39,55.14v7.83l5.96,1.74v2.53l-5.96-1.75v8.06l6.67,2v2.53l-8.79-2.65v-23.4l8.79,2.49v2.53l-6.67-1.9Z"/><path class="uuid-6b963595-0566-4483-83c8-b26384c4cfd1" d="m23.86,91.9c-1.94.54-3.75.62-5.41.25-1.66-.37-3.15-1.11-4.48-2.2s-2.45-2.47-3.39-4.12-1.65-3.47-2.14-5.46c-.49-2-.74-4.08-.74-6.25s.23-4.05.68-5.72c.46-1.68,1.13-3.05,2.01-4.11.89-1.06,1.97-1.77,3.23-2.13,1.27-.36,2.72-.29,4.35.23,1.63.52,3.43,1.53,5.39,3.03v7.14c-1.55-1.42-2.98-2.4-4.29-2.95-1.31-.55-2.45-.7-3.42-.44-.97.25-1.72.9-2.27,1.95-.54,1.04-.81,2.47-.81,4.29,0,1.59.2,3.07.59,4.42.4,1.36.95,2.5,1.67,3.44.72.94,1.54,1.55,2.47,1.86.31.1.63.19.94.25.31.06.62.08.92.07v-4.46l-1.56-.5-1.55-.5v-6.26l3.88,1.23,3.9,1.24v15.73Z"/><path class="uuid-6b963595-0566-4483-83c8-b26384c4cfd1" d="m36.05,98.16c-1.39-.46-2.68-1.27-3.86-2.41-1.18-1.14-2.19-2.53-3.04-4.17-.85-1.64-1.51-3.46-1.98-5.46-.47-2.01-.71-4.09-.71-6.27s.23-4.11.71-5.79c.47-1.69,1.13-3.07,1.98-4.15.85-1.08,1.86-1.81,3.04-2.2s2.46-.37,3.86.06,2.69,1.21,3.87,2.33,2.21,2.5,3.09,4.13c.88,1.64,1.56,3.46,2.05,5.48.48,2.02.73,4.13.73,6.34s-.24,4.17-.73,5.9c-.48,1.72-1.17,3.12-2.05,4.21-.88,1.08-1.91,1.81-3.09,2.17-1.18.36-2.47.31-3.87-.15Zm0-6.92c.94.31,1.74.22,2.41-.26.67-.48,1.19-1.29,1.57-2.42.37-1.13.56-2.53.56-4.19s-.19-3.16-.56-4.51c-.38-1.35-.9-2.48-1.57-3.39-.67-.91-1.48-1.51-2.41-1.8s-1.71-.2-2.39.27-1.2,1.26-1.57,2.38c-.37,1.12-.56,2.5-.56,4.14s.19,3.15.56,4.52c.37,1.37.89,2.51,1.57,3.43s1.47,1.53,2.39,1.83Z"/><path class="uuid-6b963595-0566-4483-83c8-b26384c4cfd1" d="m57.51,105.32c-1.44-.48-2.77-1.31-3.99-2.48-1.22-1.17-2.27-2.59-3.15-4.27-.88-1.67-1.56-3.53-2.05-5.57-.49-2.04-.73-4.17-.73-6.38s.24-4.18.73-5.89c.49-1.72,1.17-3.12,2.05-4.21.88-1.09,1.93-1.84,3.15-2.22s2.55-.36,3.99.08,2.78,1.24,4,2.39,2.29,2.56,3.2,4.23c.91,1.67,1.62,3.53,2.12,5.59.5,2.06.75,4.21.75,6.46s-.25,4.25-.75,6c-.5,1.75-1.21,3.17-2.12,4.27-.91,1.1-1.98,1.83-3.2,2.19-1.22.36-2.56.3-4-.18Zm0-7.04c.97.32,1.8.24,2.5-.25.7-.49,1.24-1.3,1.63-2.46.39-1.15.58-2.57.58-4.26s-.19-3.22-.58-4.59c-.39-1.37-.93-2.53-1.63-3.46-.7-.93-1.53-1.55-2.5-1.85s-1.77-.21-2.47.27-1.24,1.28-1.62,2.41c-.38,1.14-.58,2.54-.58,4.21s.19,3.21.58,4.6c.38,1.4.92,2.56,1.62,3.5s1.52,1.56,2.47,1.87Z"/><path class="uuid-6b963595-0566-4483-83c8-b26384c4cfd1" d="m70.5,108.94v-29.87l3.68,1.14,3.7,1.14c1.52.47,2.91,1.28,4.18,2.42s2.39,2.56,3.34,4.21c.95,1.66,1.69,3.49,2.22,5.48.53,1.99.8,4.08.8,6.24s-.26,4.09-.8,5.75c-.53,1.67-1.27,3.03-2.22,4.1-.95,1.06-2.07,1.76-3.34,2.09s-2.67.24-4.18-.26c-1.23-.41-2.46-.82-3.7-1.23l-3.68-1.22Zm7.38-20.61l-1.01-.32-1.04-.33v16.06l1.04.34,1.01.33c1.02.33,1.91.27,2.67-.19s1.35-1.24,1.76-2.33c.41-1.09.62-2.41.62-3.95s-.21-2.98-.62-4.32-1-2.48-1.76-3.42c-.76-.93-1.65-1.56-2.67-1.88Z"/><path class="uuid-6b963595-0566-4483-83c8-b26384c4cfd1" d="m100.19,88.65c0-4.32.48-8.41,1.45-12.26.97-3.85,2.33-7.34,4.1-10.49,1.76-3.14,3.87-5.78,6.32-7.94s5.13-3.69,8.07-4.65c2.92-.95,6.03-1.18,9.32-.7v13.9c-2.23-.87-4.45-1.09-6.66-.65-2.22.44-4.23,1.48-6.04,3.12-1.81,1.65-3.26,3.85-4.35,6.59-1.09,2.75-1.63,6.02-1.63,9.8s.54,6.71,1.63,8.79c1.08,2.07,2.53,3.37,4.35,3.9,1.81.53,3.82.32,6.04-.62,2.21-.93,4.43-2.53,6.66-4.78v13.9c-3.29,2.52-6.4,4.21-9.32,5.08-2.94.87-5.63.99-8.07.36-2.45-.64-4.56-1.98-6.32-4.03-1.77-2.05-3.13-4.7-4.1-7.95-.97-3.25-1.45-7.04-1.45-11.36Z"/><path class="uuid-6b963595-0566-4483-83c8-b26384c4cfd1" d="m151.58,101.48c-2.66.89-5.14,1-7.42.32-2.29-.68-4.27-2.05-5.94-4.11-1.68-2.07-2.98-4.74-3.92-8.02-.94-3.28-1.41-7.03-1.41-11.23s.47-8.23,1.41-12.07c.93-3.83,2.24-7.28,3.92-10.36s3.65-5.66,5.94-7.75,4.75-3.51,7.42-4.28c2.65-.76,5.08-.75,7.3.04,2.21.78,4.12,2.2,5.75,4.26,1.62,2.05,2.87,4.67,3.76,7.86.88,3.19,1.32,6.82,1.32,10.9s-.44,8-1.32,11.76c-.89,3.77-2.14,7.19-3.76,10.27-1.62,3.09-3.54,5.71-5.75,7.86-2.22,2.15-4.65,3.68-7.3,4.56Zm0-13.08c1.78-.57,3.3-1.72,4.57-3.44,1.26-1.72,2.25-3.86,2.95-6.45.7-2.57,1.05-5.41,1.05-8.51s-.35-5.69-1.05-7.78c-.7-2.09-1.68-3.6-2.95-4.54-1.27-.94-2.79-1.14-4.57-.61-1.75.52-3.28,1.62-4.58,3.3-1.3,1.69-2.31,3.82-3.03,6.39-.72,2.58-1.08,5.44-1.08,8.58s.36,5.8,1.08,7.95c.72,2.16,1.73,3.69,3.03,4.59,1.3.91,2.83,1.07,4.58.51Z"/><path class="uuid-6b963595-0566-4483-83c8-b26384c4cfd1" d="m174.77,92.48v-53.87c2.1-.6,4.2-1.21,6.3-1.81s4.17-1.2,6.23-1.79c2.6-.75,4.87-.66,6.8.27,1.93.92,3.42,2.56,4.48,4.92s1.59,5.31,1.59,8.87c0,3.05-.4,5.89-1.21,8.52-.81,2.63-1.9,4.92-3.29,6.85,1.35,3.05,2.71,6.13,4.07,9.23,1.36,3.1,2.7,6.16,4.04,9.17-1.64.54-3.28,1.09-4.92,1.64-1.65.55-3.3,1.1-4.96,1.65-1.05-2.56-2.11-5.18-3.19-7.85-1.07-2.68-2.16-5.3-3.26-7.88l-1.78.56-1.78.57v17.92c-1.48.49-2.99.99-4.52,1.5s-3.07,1.02-4.61,1.53Zm12.53-45.09l-1.68.5-1.73.52v11.64l1.96-.6,1.96-.6c1.03-.32,1.86-1.13,2.51-2.45.65-1.32.97-2.78.97-4.4s-.35-2.94-1.05-3.83c-.7-.89-1.68-1.14-2.95-.76Z"/><path class="uuid-6b963595-0566-4483-83c8-b26384c4cfd1" d="m206.78,81.83V29.41c1.46-.42,2.92-.84,4.39-1.26s2.9-.83,4.31-1.24c1.73,4.34,3.48,8.72,5.25,13.12,1.76,4.39,3.49,8.72,5.2,13v-29.12l4.12-1.19,4.1-1.18v51.19l-4.17,1.39c-1.42.47-2.84.94-4.25,1.41-1.7-4.24-3.44-8.54-5.2-12.9-1.77-4.37-3.52-8.71-5.25-13.02v29.39c-1.41.47-2.82.94-4.23,1.41s-2.84.94-4.26,1.42Z"/><path class="uuid-6b963595-0566-4483-83c8-b26384c4cfd1" d="m240.27,70.7V19.78c3.15-.91,6.32-1.81,9.49-2.73,3.16-.91,6.27-1.8,9.34-2.68v11.49c-1.76.52-3.53,1.05-5.31,1.58l-5.36,1.6v7.36c1.63-.5,3.28-1,4.93-1.5s3.26-.99,4.84-1.47v11.13l-4.84,1.52c-1.65.52-3.3,1.04-4.93,1.55v8.77l5.36-1.73,5.31-1.71v11.49c-3.06,1.02-6.18,2.05-9.34,3.1-3.18,1.06-6.34,2.11-9.49,3.16Z"/><path class="uuid-6b963595-0566-4483-83c8-b26384c4cfd1" d="m264.52,62.64V12.81l5.39-1.55c1.79-.52,3.57-1.03,5.34-1.53,2.23-.64,4.17-.51,5.83.38,1.65.89,2.94,2.44,3.84,4.64.91,2.2,1.36,4.95,1.36,8.25,0,2.83-.35,5.45-1.04,7.86-.69,2.42-1.63,4.51-2.82,6.28,1.16,2.85,2.32,5.73,3.49,8.64s2.32,5.76,3.47,8.58l-4.22,1.4-4.26,1.42c-.9-2.4-1.81-4.84-2.73-7.34-.92-2.5-1.85-4.95-2.79-7.36l-1.52.48-1.53.48v16.59l-3.87,1.29-3.94,1.31Zm10.73-41.44l-1.44.43-1.48.44v10.77l1.68-.52,1.68-.52c.88-.27,1.6-1.01,2.15-2.22.55-1.21.83-2.56.83-4.05s-.3-2.73-.9-3.56c-.6-.84-1.44-1.09-2.53-.77Z"/><polygon class="uuid-d397ef74-b39f-486f-a272-1a84d39ae21d" points="253.5 15.98 259.1 14.37 259.1 19.87 253.5 21.55 253.5 15.98"/><polygon class="uuid-d397ef74-b39f-486f-a272-1a84d39ae21d" points="70.5 108.94 75.83 110.71 75.83 105.73 70.5 103.91 70.5 108.94"/></svg>